<?xml version="1.0" encoding="UTF-8"?><svg xmlns="http://www.w3.org/2000/svg" xmlns:xlink="http://www.w3.org/1999/xlink" viewBox="0 0 32 32" version="1.1"><path d="M8 3c-1.094 0-2 .906-2 2v22c0 1.094.906 2 2 2h16c1.094 0 2-.906 2-2V9.594l-.281-.313-6-6L19.406 3zm0 2h9v5c0 1.094.906 2 2 2h5v15H8zm11 .438L23.563 10H19zM11 15v2h10v-2zm0 3v2h10v-2zm0 3v2h5v-2z" id="surface1"/><metadata><rdf:RDF xmlns:rdf="http://www.w3.org/1999/02/22-rdf-syntax-ns#" xmlns:rdfs="http://www.w3.org/2000/01/rdf-schema#" xmlns:dc="http://purl.org/dc/elements/1.1/"><rdf:Description about="https://iconscout.com/legal#licenses" dc:title="google,docs" dc:description="google,docs" dc:publisher="Iconscout" dc:date="2017-12-30" dc:format="image/svg+xml" dc:language="en"><dc:creator><rdf:Bag><rdf:li>Icons8</rdf:li></rdf:Bag></dc:creator></rdf:Description></rdf:RDF></metadata></svg>